<svg width="64" height="64" viewBox="0 0 64 64" fill="none" xmlns="http://www.w3.org/2000/svg">
<path d="M30.5155 0.0693421L33.2005 0.0754726C35.9619 0.0817776 38.1954 2.32546 38.189 5.08688L38.142 25.4457L46.881 10.4162C48.4162 7.77601 52.037 7.30875 54.1919 9.47271C56.3481 11.6378 55.864 15.2588 53.2148 16.7816L38.142 25.4457L58.512 25.4922C61.2734 25.4986 63.5068 27.7422 63.5005 30.5036L63.495 32.8661C63.4887 35.6275 61.2449 37.861 58.4835 37.8547L38.1135 37.8082L52.9735 45.9754C55.6769 47.4612 56.1942 51.1277 54.0074 53.3035C51.8728 55.4274 48.3099 54.9762 46.7723 52.3873L38.1135 37.8082L38.0665 58.167C38.0601 60.9284 35.8164 63.1619 33.055 63.1556L30.37 63.1495C27.6085 63.1432 25.3751 60.8995 25.3815 58.1381L25.4285 37.7792L16.7025 52.3186C15.1529 54.9005 11.588 55.3354 9.46323 53.2018C7.28648 51.016 7.82065 47.352 10.5309 45.8785L25.4285 37.7792L5.05846 37.7327C2.29704 37.7264 0.0636328 35.4827 0.0700047 32.7213L0.0754559 30.3588C0.0818278 27.5974 2.32556 25.364 5.08698 25.3703L25.457 25.4168L10.2207 16.8331C7.37672 15.2309 6.85069 11.3552 9.16468 9.05278C11.4775 6.75158 15.3482 7.29518 16.9376 10.1444L25.457 25.4168L25.504 5.05792C25.5103 2.2965 27.7541 0.0630371 30.5155 0.0693421Z" fill="#75758A"/>
</svg>
